<svg viewBox="0 0 1400 820" xmlns="http://www.w3.org/2000/svg">
<rect x="0" y="0" width="1400" height="820" fill="#F3F2ED"/><rect x="0" y="0" width="1400" height="98" fill="#1F9D6B" opacity="0.08"/><circle cx="20" cy="49" r="4" fill="#1F9D6B" opacity="0.5"/><circle cx="36" cy="49" r="4" fill="#1F9D6B" opacity="0.5"/><circle cx="52" cy="49" r="4" fill="#1F9D6B" opacity="0.5"/><circle cx="26.5" cy="170.5" r="6.5" fill="#1F9D6B" opacity="0.6000000000000001"/><rect x="43" y="167.25" width="820" height="6.5" rx="4" fill="#1F9D6B" opacity="0.4"/><rect x="20" y="194" width="1112" height="15" rx="4" fill="#1F9D6B" opacity="0.23"/><circle cx="27.5" cy="228.5" r="7.5" fill="#1F9D6B" opacity="0.36"/><rect x="45" y="224.75" width="573" height="7.5" rx="4" fill="#1F9D6B" opacity="0.16"/><rect x="20" y="249" width="564" height="17" rx="4" fill="#1F9D6B" opacity="0.17"/><rect x="20" y="276" width="993" height="20" rx="4" fill="#1F9D6B" opacity="0.14"/><rect x="20" y="312" width="540" height="25" rx="4" fill="#1F9D6B" opacity="0.16"/><rect x="20" y="354" width="1022" height="23" rx="4" fill="#1F9D6B" opacity="0.32"/>
<text x="1386" y="806" text-anchor="end" font-family="monospace" font-size="10" fill="#1F9D6B" opacity="0.55">cover — replace with real shot</text>
</svg>