<svg viewBox="0 0 700 480" xmlns="http://www.w3.org/2000/svg">
<rect x="0" y="0" width="700" height="480" fill="#F3F2ED"/><rect x="0" y="0" width="700" height="57" fill="#3B45E4" opacity="0.08"/><circle cx="20" cy="28" r="4" fill="#3B45E4" opacity="0.5"/><circle cx="36" cy="28" r="4" fill="#3B45E4" opacity="0.5"/><circle cx="52" cy="28" r="4" fill="#3B45E4" opacity="0.5"/><rect x="20" y="96" width="390" height="17" rx="4" fill="#3B45E4" opacity="0.19"/><rect x="20" y="127" width="249" height="18" rx="4" fill="#3B45E4" opacity="0.13"/><circle cx="26.0" cy="165.0" r="6.0" fill="#3B45E4" opacity="0.38"/><rect x="42" y="162.0" width="235" height="6.0" rx="4" fill="#3B45E4" opacity="0.18"/><circle cx="26.5" cy="187.5" r="6.5" fill="#3B45E4" opacity="0.36"/><rect x="43" y="184.25" width="560" height="6.5" rx="4" fill="#3B45E4" opacity="0.16"/><circle cx="28.5" cy="214.5" r="8.5" fill="#3B45E4" opacity="0.47000000000000003"/><rect x="47" y="210.25" width="463" height="8.5" rx="4" fill="#3B45E4" opacity="0.27"/><rect x="20" y="233" width="532" height="17" rx="4" fill="#3B45E4" opacity="0.26"/><rect x="20" y="268" width="482" height="20" rx="4" fill="#3B45E4" opacity="0.3"/>
<text x="686" y="466" text-anchor="end" font-family="monospace" font-size="10" fill="#3B45E4" opacity="0.55">shot 02</text>
</svg>