<svg viewBox="0 0 700 480" xmlns="http://www.w3.org/2000/svg">
<rect x="0" y="0" width="700" height="480" fill="#F3F2ED"/><rect x="0" y="0" width="700" height="57" fill="#C98A1F" opacity="0.08"/><circle cx="20" cy="28" r="4" fill="#C98A1F" opacity="0.5"/><circle cx="36" cy="28" r="4" fill="#C98A1F" opacity="0.5"/><circle cx="52" cy="28" r="4" fill="#C98A1F" opacity="0.5"/><circle cx="30.5" cy="106.5" r="10.5" fill="#C98A1F" opacity="0.55"/><rect x="51" y="101.25" width="471" height="10.5" rx="4" fill="#C98A1F" opacity="0.35"/><rect x="20" y="130" width="235" height="14" rx="4" fill="#C98A1F" opacity="0.17"/><rect x="20" y="162" width="525" height="19" rx="4" fill="#C98A1F" opacity="0.15"/><rect x="20" y="194" width="418" height="19" rx="4" fill="#C98A1F" opacity="0.26"/><circle cx="26.5" cy="230.5" r="6.5" fill="#C98A1F" opacity="0.34"/><rect x="43" y="227.25" width="399" height="6.5" rx="4" fill="#C98A1F" opacity="0.14"/><circle cx="27.5" cy="258.5" r="7.5" fill="#C98A1F" opacity="0.32"/><rect x="45" y="254.75" width="227" height="7.5" rx="4" fill="#C98A1F" opacity="0.12"/><circle cx="26.0" cy="282.0" r="6.0" fill="#C98A1F" opacity="0.4"/><rect x="42" y="279.0" width="448" height="6.0" rx="4" fill="#C98A1F" opacity="0.2"/>
<text x="686" y="466" text-anchor="end" font-family="monospace" font-size="10" fill="#C98A1F" opacity="0.55">shot 02</text>
</svg>