<svg viewBox="0 0 700 480" xmlns="http://www.w3.org/2000/svg">
<rect x="0" y="0" width="700" height="480" fill="#F3F2ED"/><rect x="0" y="0" width="700" height="57" fill="#C98A1F" opacity="0.08"/><circle cx="20" cy="28" r="4" fill="#C98A1F" opacity="0.5"/><circle cx="36" cy="28" r="4" fill="#C98A1F" opacity="0.5"/><circle cx="52" cy="28" r="4" fill="#C98A1F" opacity="0.5"/><circle cx="31.0" cy="107.0" r="11.0" fill="#C98A1F" opacity="0.48000000000000004"/><rect x="52" y="101.5" width="315" height="11.0" rx="4" fill="#C98A1F" opacity="0.28"/><rect x="20" y="131" width="478" height="15" rx="4" fill="#C98A1F" opacity="0.34"/><circle cx="26.5" cy="169.5" r="6.5" fill="#C98A1F" opacity="0.6000000000000001"/><rect x="43" y="166.25" width="259" height="6.5" rx="4" fill="#C98A1F" opacity="0.4"/><circle cx="25.5" cy="197.5" r="5.5" fill="#C98A1F" opacity="0.49"/><rect x="41" y="194.75" width="254" height="5.5" rx="4" fill="#C98A1F" opacity="0.29"/><rect x="20" y="223" width="595" height="15" rx="4" fill="#C98A1F" opacity="0.13"/><circle cx="32.0" cy="261.0" r="12.0" fill="#C98A1F" opacity="0.5"/><rect x="54" y="255.0" width="548" height="12.0" rx="4" fill="#C98A1F" opacity="0.3"/><circle cx="30.5" cy="302.5" r="10.5" fill="#C98A1F" opacity="0.35"/><rect x="51" y="297.25" width="433" height="10.5" rx="4" fill="#C98A1F" opacity="0.15"/>
<text x="686" y="466" text-anchor="end" font-family="monospace" font-size="10" fill="#C98A1F" opacity="0.55">shot 04</text>
</svg>