<svg viewBox="0 0 700 480" xmlns="http://www.w3.org/2000/svg">
<rect x="0" y="0" width="700" height="480" fill="#F3F2ED"/><rect x="0" y="0" width="700" height="57" fill="#3B45E4" opacity="0.08"/><circle cx="20" cy="28" r="4" fill="#3B45E4" opacity="0.5"/><circle cx="36" cy="28" r="4" fill="#3B45E4" opacity="0.5"/><circle cx="52" cy="28" r="4" fill="#3B45E4" opacity="0.5"/><circle cx="28.5" cy="104.5" r="8.5" fill="#3B45E4" opacity="0.51"/><rect x="47" y="100.25" width="186" height="8.5" rx="4" fill="#3B45E4" opacity="0.31"/><circle cx="30.0" cy="138.0" r="10.0" fill="#3B45E4" opacity="0.55"/><rect x="50" y="133.0" width="350" height="10.0" rx="4" fill="#3B45E4" opacity="0.35"/><rect x="20" y="167" width="482" height="16" rx="4" fill="#3B45E4" opacity="0.36"/><rect x="20" y="193" width="276" height="26" rx="4" fill="#3B45E4" opacity="0.2"/><circle cx="30.0" cy="242.0" r="10.0" fill="#3B45E4" opacity="0.36"/><rect x="50" y="237.0" width="214" height="10.0" rx="4" fill="#3B45E4" opacity="0.16"/><circle cx="26.0" cy="269.0" r="6.0" fill="#3B45E4" opacity="0.46"/><rect x="42" y="266.0" width="464" height="6.0" rx="4" fill="#3B45E4" opacity="0.26"/>
<text x="686" y="466" text-anchor="end" font-family="monospace" font-size="10" fill="#3B45E4" opacity="0.55">shot 04</text>
</svg>